<?xml version="1.0" encoding="UTF-8" standalone="no"?>
<svg
   width="16"
   height="16"
   fill="currentColor"
   class="bi bi-minecart-loaded"
   viewBox="0 0 16 16"
   version="1.1"
   id="svg6"
   sodipodi:docname="minecart-loaded.svg"
   inkscape:version="1.1.2 (0a00cf5339, 2022-02-04)"
   xmlns:inkscape="http://www.inkscape.org/namespaces/inkscape"
   xmlns:sodipodi="http://sodipodi.sourceforge.net/DTD/sodipodi-0.dtd"
   xmlns="http://www.w3.org/2000/svg"
   xmlns:svg="http://www.w3.org/2000/svg">
  <defs
     id="defs10" />
  <sodipodi:namedview
     id="namedview8"
     pagecolor="#ffffff"
     bordercolor="#666666"
     borderopacity="1.0"
     inkscape:pageshadow="2"
     inkscape:pageopacity="0.0"
     inkscape:pagecheckerboard="0"
     showgrid="false"
     inkscape:zoom="18.4375"
     inkscape:cx="4.8"
     inkscape:cy="8.4338983"
     inkscape:window-width="1366"
     inkscape:window-height="721"
     inkscape:window-x="0"
     inkscape:window-y="20"
     inkscape:window-maximized="1"
     inkscape:current-layer="svg6" />
  <rect
     style="fill:#ffffff;stroke-width:1.29638"
     id="rect853"
     width="12.784684"
     height="12.784684"
     x="1.6076579"
     y="1.6076579"
     ry="0.58430755" />
  <path
     id="path4"
     style="stroke-width:0.619856"
     d="m 6.760272,3.6607526 a 1.5484008,1.5484008 0 0 1 2.4794248,0 c 0.5070424,0 0.9576782,0.2442234 1.2397122,0.6198562 0.415304,0 0.962017,0.3533181 1.239713,0.6198562 h -1.239713 c -0.194635,0 -0.378732,-0.092978 -0.4958847,-0.2479425 C 9.8136837,4.426275 9.5434263,4.2806088 9.2396968,4.2806088 c -0.1946348,0 -0.3787321,-0.092978 -0.495885,-0.2479425 a 0.92792475,0.92792475 0 0 0 -1.4876549,0 C 7.1390041,4.1876304 6.9549068,4.2806088 6.760272,4.2806088 c -0.3142671,0 -0.5919627,0.1555839 -0.7611835,0.3954683 -0.055787,0.080581 -0.1202521,0.154964 -0.1909157,0.2243879 H 4.9007033 C 4.9812846,4.8093462 5.1492657,4.6326871 5.2490625,4.5626434 A 1.0103656,1.0103656 0 0 0 5.492666,4.3190399 1.5484008,1.5484008 0 0 1 6.760272,3.6607526 Z M 5.5205595,12.33874 a 0.6198565,0.6198565 0 1 1 0,-1.239713 0.6198565,0.6198565 0 0 1 0,1.239713 z m 0,0.619856 a 1.2397125,1.2397125 0 1 0 0,-2.479425 1.2397125,1.2397125 0 0 0 0,2.479425 z M 10.479409,12.33874 a 0.6198565,0.6198565 0 1 1 0,-1.239713 0.6198565,0.6198565 0 0 1 0,1.239713 z m 0,0.619856 a 1.2397125,1.2397125 0 1 0 0,-2.479425 1.2397125,1.2397125 0 0 0 0,2.479425 z M 3.1124182,5.0120391 A 0.30992811,0.30992811 0 0 1 3.3510628,4.900465 h 9.2978432 a 0.30992811,0.30992811 0 0 1 0.304349,0.3669549 L 12.023471,10.22627 a 0.30992811,0.30992811 0 0 1 -0.304349,0.252901 H 4.2808471 A 0.30992811,0.30992811 0 0 1 3.9764977,10.22627 L 3.0467134,5.2674199 A 0.30992811,0.30992811 0 0 1 3.1124182,5.012659 Z m 0.611798,0.5082821 0.8138712,4.3389935 h 6.9237936 l 0.813872,-4.3389935 z" />
</svg>
